HIERARCHY
ROOT root
{
	OFFSET 0.000000 0.000000 0.000000
	CHANNELS 6 Xposition Yposition Zposition Zrotation Yrotation Xrotation
	JOINT lhip
	{
		OFFSET 0.058581 -0.082280 -0.017664
		CHANNELS 3 Zrotation Yrotation Xrotation
		JOINT lknee
		{
			OFFSET 0.043451 -0.386469 0.008037
			CHANNELS 3 Zrotation Yrotation Xrotation
			JOINT lankle
			{
				OFFSET -0.014790 -0.426874 -0.037428
				CHANNELS 3 Zrotation Yrotation Xrotation
				JOINT ltoe
				{
					OFFSET 0.041054 -0.060286 0.122042
					CHANNELS 3 Zrotation Yrotation Xrotation
					End Site
					{
						OFFSET 0.000000 0.000000 0.000000
					}
				}
			}
		}
	}
	JOINT rhip
	{
		OFFSET -0.060310 -0.090513 -0.013543
		CHANNELS 3 Zrotation Yrotation Xrotation
		JOINT rknee
		{
			OFFSET -0.043257 -0.383688 -0.004843
			CHANNELS 3 Zrotation Yrotation Xrotation
			JOINT rankle
			{
				OFFSET 0.019056 -0.420046 -0.034562
				CHANNELS 3 Zrotation Yrotation Xrotation
				JOINT rtoe
				{
					OFFSET -0.034840 -0.062106 0.130323
					CHANNELS 3 Zrotation Yrotation Xrotation
					End Site
					{
						OFFSET 0.000000 0.000000 0.000000
					}
				}
			}
		}
	}
	JOINT lowerback
	{
		OFFSET 0.004439 0.124404 -0.038385
		CHANNELS 3 Zrotation Yrotation Xrotation
		JOINT upperback
		{
			OFFSET 0.004488 0.137956 0.026820
			CHANNELS 3 Zrotation Yrotation Xrotation
			JOINT chest
			{
				OFFSET -0.002265 0.056032 0.002855
				CHANNELS 3 Zrotation Yrotation Xrotation
				JOINT lowerneck
				{
					OFFSET -0.013390 0.211636 -0.033468
					CHANNELS 3 Zrotation Yrotation Xrotation
					JOINT upperneck
					{
						OFFSET 0.010113 0.088937 0.050410
						CHANNELS 3 Zrotation Yrotation Xrotation
						End Site
						{
							OFFSET 0.000000 0.000000 0.000000
						}
					}
				}
				JOINT lclavicle
				{
					OFFSET 0.071702 0.114000 -0.018898
					CHANNELS 3 Zrotation Yrotation Xrotation
					JOINT lshoulder
					{
						OFFSET 0.122921 0.045205 -0.019046
						CHANNELS 3 Zrotation Yrotation Xrotation
						JOINT lelbow
						{
							OFFSET 0.255332 -0.015649 -0.022946
							CHANNELS 3 Zrotation Yrotation Xrotation
							JOINT lwrist
							{
								OFFSET 0.265709 0.012698 -0.007375
								CHANNELS 3 Zrotation Yrotation Xrotation
								End Site
								{
									OFFSET 0.000000 0.000000 0.000000
								}
							}
						}
					}
				}
				JOINT rclavicle
				{
					OFFSET -0.082954 0.112472 -0.023707
					CHANNELS 3 Zrotation Yrotation Xrotation
					JOINT rshoulder
					{
						OFFSET -0.113228 0.046853 -0.008472
						CHANNELS 3 Zrotation Yrotation Xrotation
						JOINT relbow
						{
							OFFSET -0.260127 -0.014369 -0.031269
							CHANNELS 3 Zrotation Yrotation Xrotation
							JOINT rwrist
							{
								OFFSET -0.269108 0.006794 -0.006027
								CHANNELS 3 Zrotation Yrotation Xrotation
								End Site
								{
									OFFSET 0.000000 0.000000 0.000000
								}
							}
						}
					}
				}
			}
		}
	}
}
MOTION
Frames: 11
Frame Time: 0.033333
0.977965 0.347921 0.882128 1.646386 -6.522143 83.325283 13.028512 -3.482069 -17.661887 -5.173632 0.221198 38.978408 -1.079617 4.309708 -25.595951 0.000000 -0.000000 0.000000 -7.271856 -7.137549 -5.828681 -4.445678 -11.791262 63.839082 6.923048 1.118884 -32.370290 0.000000 -0.000000 0.000000 -4.498879 4.678739 17.603699 -2.406909 -0.589034 1.590649 -3.688863 1.011199 1.706942 -6.736454 8.917111 -0.631880 -0.349910 -0.786978 18.673488 -18.627812 -1.692701 -10.478809 -71.916946 -34.001428 20.573184 177.434394 -52.267203 -143.923060 17.756459 -11.462779 -35.209037 21.873709 -0.703942 -4.012282 63.240312 9.213584 18.381048 -177.800302 52.667097 -147.919277 -5.279353 24.093558 -23.758285 
0.971291 0.369849 0.908771 6.284846 -6.197944 83.604044 13.072461 -3.656636 -17.963154 -5.022336 1.117892 31.869921 -3.280049 1.363164 -16.635828 0.000000 -0.000000 0.000000 -7.525618 -8.144322 -7.428335 -4.152172 -14.012527 62.298068 7.130782 2.165979 -24.850288 0.000000 -0.000000 0.000000 -4.770170 5.487877 18.443307 -1.223336 -1.174761 2.226587 -2.732121 0.513249 1.904291 -5.772836 6.984358 -0.372887 0.293011 -3.438463 18.021915 -16.572150 -2.018990 -10.750414 -74.385418 -33.926471 22.566288 178.394767 -53.811565 -144.353928 17.971710 -11.001668 -33.673164 20.834216 -0.667785 -4.351569 63.030708 8.904805 18.132574 -177.520011 50.814665 -146.367252 -4.748899 23.386662 -23.772599 
0.958574 0.395876 0.945172 11.297720 -5.533674 85.467262 12.923537 -2.529413 -17.924330 -4.359820 2.621727 20.972992 -7.849206 1.124261 -6.539919 0.000000 -0.000000 0.000000 -7.386348 -8.732302 -11.070829 -3.937380 -18.027087 60.173013 11.172534 3.914310 -12.971412 0.000000 -0.000000 0.000000 -4.937102 4.437648 18.766705 -0.107400 -1.859581 1.948035 -2.047624 0.404735 1.580804 -4.761118 5.567913 -0.389804 1.631887 -5.104132 16.033476 -15.795228 -1.677388 -10.086412 -74.425490 -33.701777 23.561325 178.281567 -53.791037 -144.900577 17.532573 -11.540040 -33.807284 21.727964 -0.729141 -5.089044 62.349788 9.038799 19.151379 -177.054911 50.018318 -146.816257 -4.408032 24.057491 -22.391462 
0.949157 0.424580 0.983183 15.290962 -4.244287 86.895759 12.048569 -1.942052 -16.676729 -1.439908 4.697868 17.924651 -6.209819 3.659518 -9.210824 0.000000 -0.000000 0.000000 -8.533825 -8.750955 -16.240218 -1.347420 -18.130782 58.928285 15.696803 6.903497 -1.187561 0.000000 -0.000000 0.000000 -2.788642 3.399924 19.056449 1.179642 -1.664510 1.905979 -1.058489 -0.710326 0.825706 -4.629389 2.835199 0.127326 2.441854 -4.836831 12.591903 -16.131742 -3.231961 -8.004110 -74.015186 -32.942051 22.843086 177.386263 -53.000861 -144.105532 17.583026 -11.852791 -30.946315 20.830835 0.434033 -4.469709 60.172391 9.944858 18.031797 -176.031109 48.151994 -146.825569 -0.958861 24.785787 -23.229012 
0.943738 0.439143 0.995221 15.525786 -3.789985 87.007573 12.708001 -2.724729 -16.440214 -1.924288 2.903764 27.123370 -5.856446 3.704226 -12.188783 0.000000 -0.000000 0.000000 -9.522450 -7.580228 -18.915953 -0.963563 -17.016569 58.580676 14.562252 6.311987 -6.038018 0.000000 -0.000000 0.000000 -2.589952 3.093029 19.442815 2.210876 -1.354956 1.497114 -0.222846 -1.265930 0.729551 -3.250420 1.859777 -0.258014 1.709161 -5.044806 11.909609 -16.078251 -3.548593 -6.603177 -73.753049 -33.167030 21.861188 176.646739 -52.470039 -142.923681 18.875384 -11.901746 -32.244841 21.114212 1.490753 -4.256823 58.290044 11.460722 17.672366 -175.624606 48.186676 -145.967039 -4.634031 24.668259 -22.555909 
0.940671 0.458068 0.998436 13.220130 -2.754472 85.597935 13.626308 -2.421862 -12.468467 -1.493954 1.304959 41.811388 -5.556223 3.975656 -14.916060 0.000000 -0.000000 0.000000 -10.649815 -5.298615 -21.310241 -4.489593 -15.520788 57.143021 11.885220 2.532169 -10.513643 0.000000 -0.000000 0.000000 -1.365659 2.019304 21.895555 2.705220 -0.431211 0.122120 0.472317 -1.208663 1.712515 -1.271718 2.961806 -2.409077 0.368378 -3.684679 12.439399 -16.846245 -3.615481 -6.486086 -72.857526 -33.195342 20.944163 175.921228 -51.962861 -142.541391 17.532320 -11.808956 -32.588506 21.856781 2.593808 -5.852834 56.697603 13.594527 18.368856 -174.827815 49.373267 -144.751329 -3.908248 23.795374 -17.916662 
0.938431 0.474982 0.988513 12.102089 -2.109785 85.051611 14.408165 -0.935984 -7.659436 -4.734831 -3.183076 52.619979 -7.956391 -0.849483 -12.515699 0.000000 -0.000000 0.000000 -12.051700 -5.301221 -23.985263 -7.988791 -13.298472 53.417874 7.717199 -2.745061 -9.922794 0.000000 -0.000000 0.000000 -0.464826 -0.230012 23.010456 2.948586 -0.255556 -0.960598 0.788899 -1.423845 1.912354 -0.318739 3.186767 -3.840107 1.317811 -1.588164 14.362842 -18.287025 -2.721501 -7.184403 -70.685084 -32.907209 19.627816 176.543723 -52.014874 -143.275479 16.989164 -12.292373 -32.615640 22.945992 3.075248 -6.652551 56.594856 14.848880 18.781600 -174.051061 50.847447 -144.395498 -1.866718 23.785099 -15.621912 
0.935729 0.490552 0.969014 12.731596 -1.680026 85.868957 14.052535 -0.859624 -1.539670 -11.796228 -11.916929 52.234379 -14.286309 -7.595139 -5.823787 0.000000 -0.000000 0.000000 -14.268128 -5.625100 -27.579721 -9.326620 -12.340940 50.668321 7.196816 -6.037856 -2.081293 0.000000 -0.000000 0.000000 0.078128 -2.178804 21.377863 3.979873 -0.390498 -0.503203 1.117754 -2.074253 2.066941 3.248805 1.617568 -5.631052 1.017838 -1.946721 14.527874 -20.269585 -2.185515 -7.275109 -68.866677 -33.857273 19.982343 175.961261 -52.509534 -143.102443 17.424002 -12.893170 -32.226018 24.172167 1.846838 -8.102504 57.483601 15.439721 20.469081 -172.321856 52.202283 -143.017574 -1.778484 23.723824 -13.836026 
0.934561 0.506142 0.941034 14.486460 -1.184295 87.092189 12.783120 -1.253515 5.724687 -12.760624 -20.777926 42.182379 -14.675150 -7.126359 -9.884969 0.000000 -0.000000 0.000000 -17.613365 -6.417846 -30.869411 -6.947383 -12.776748 53.789979 10.794772 -1.981082 -4.934502 0.000000 -0.000000 0.000000 1.926042 -4.470124 19.784294 4.632587 -0.629495 -0.850652 0.704017 -3.013829 2.415601 6.493866 2.767475 -7.055181 0.470311 -3.880788 13.490285 -20.664729 -1.940022 -7.710442 -69.082518 -34.336536 20.324610 175.427079 -52.913146 -142.457942 17.785026 -12.522485 -32.906553 24.887384 0.545899 -8.363913 58.580184 15.837718 19.952599 -172.277408 52.587997 -141.908939 -1.980425 22.582324 -11.789753 
0.922164 0.531327 0.899502 15.727327 -0.833119 89.500386 12.881677 -2.754072 6.432380 -9.320877 -17.367139 38.389987 -5.215576 -1.299849 -30.115860 0.000000 -0.000000 0.000000 -17.550038 -6.699511 -36.324872 -6.534232 -12.568321 58.521048 10.496238 -2.801642 -12.788794 0.000000 -0.000000 0.000000 1.689244 -4.939619 19.853009 6.017089 -0.558398 -3.177772 2.153968 -3.907620 2.895574 8.047939 2.755353 -10.749110 -0.011086 -4.368288 13.086939 -19.908321 -1.946076 -7.687119 -69.565952 -36.363100 19.354070 175.547351 -52.787103 -142.742754 17.446426 -12.206904 -33.334797 24.389361 0.075985 -9.246777 59.754868 16.238798 20.821965 -169.478518 51.550905 -138.614991 -2.248306 22.153073 -10.988351 
0.913796 0.547356 0.878834 13.058773 -1.974109 88.077654 12.155726 -0.944238 9.260727 -9.526837 -18.646492 36.607987 -3.051199 1.362216 -36.762035 0.000000 -0.000000 0.000000 -16.955187 -6.160981 -37.162699 -5.858772 -10.611012 58.958832 8.292861 -4.063333 -18.816224 0.000000 -0.000000 0.000000 0.588782 -4.154726 23.475318 5.247776 0.567212 -4.408243 2.435232 -3.759632 4.437099 7.348166 4.660394 -14.766478 -1.845534 -5.976187 14.746253 -18.537535 -1.921598 -8.215356 -71.279581 -37.930463 19.391852 174.191797 -53.299023 -140.364916 16.877937 -12.354461 -34.883690 24.848533 0.606396 -11.296378 59.864581 17.141209 21.461617 -168.808638 52.302157 -137.876158 -3.144745 22.515862 -12.032238 
